<svg id="Layer_1" enable-background="new 0 0 128 128" height="512" viewBox="0 0 128 128" width="512" xmlns="http://www.w3.org/2000/svg"><g><g><path d="m123.765 109.804-18.594-18.594c-1.104-1.104-2.577-1.713-4.147-1.713-.561 0-1.109.081-1.633.231l-3.642-3.641c3.286-4.369 5.066-9.664 5.067-15.241 0-6.795-2.639-13.177-7.432-17.969-4.17-4.17-9.442-6.578-14.887-7.237l-1.963-10.47c-2.616-13.952-14.819-24.08-29.016-24.08s-26.4 10.128-29.016 24.081l-11.824 63.066c-.586 3.118.477 6.243 2.842 8.357 2.364 2.114 5.588 2.821 8.624 1.896 2.437-.746 5.086-.107 6.914 1.67l3.195 3.103c3.282 3.188 8.429 3.403 11.966.5l2.865-2.352c2.567-2.108 6.298-2.11 8.867 0l2.866 2.353c1.666 1.366 3.687 2.042 5.701 2.042 2.267 0 4.527-.855 6.265-2.543l3.194-3.103c1.829-1.776 4.479-2.416 6.915-1.67 3.033.927 6.257.221 8.623-1.895 2.365-2.115 3.428-5.239 2.843-8.358l-.937-4.997c1.116-.598 2.196-1.285 3.23-2.061l3.663 3.663c-.566 1.983-.097 4.202 1.462 5.76l18.594 18.594c1.144 1.144 2.646 1.715 4.147 1.715s3.004-.571 4.147-1.715l1.099-1.099c2.289-2.286 2.289-6.007.002-8.293z" fill="#e6e7e8"/></g><g><path d="m82.299 88.677c-9.136 4.545-20.542 3.035-28.146-4.569-9.518-9.518-9.519-25.005-.001-34.523 5.327-5.327 12.525-7.668 19.499-7.032l-2.099-11.197c-2.529-13.491-14.309-23.267-28.034-23.267s-25.505 9.776-28.034 23.266l-11.824 63.067c-1.107 5.902 4.449 10.869 10.191 9.112 2.786-.852 5.814-.121 7.904 1.908l3.195 3.103c2.916 2.832 7.493 3.023 10.634.445l2.866-2.352c2.946-2.418 7.19-2.418 10.137 0l2.866 2.352c3.142 2.578 7.719 2.387 10.634-.445l3.195-3.103c2.09-2.029 5.118-2.761 7.904-1.908 5.742 1.757 11.297-3.21 10.191-9.112z" fill="#d4fbff"/><g><g><path d="m92.485 89.015 1.099-1.099c.456-.456.985-.797 1.548-1.033l-4.719-4.719c-.533.674-1.116 1.317-1.74 1.941-.623.624-1.267 1.207-1.941 1.74l4.719 4.719c.236-.563.577-1.092 1.034-1.549z" fill="#ffd7e5"/></g><path d="m88.677 49.585c-9.518-9.518-25.006-9.518-34.525 0-9.518 9.518-9.517 25.005.001 34.523s25.004 9.518 34.523 0c9.518-9.518 9.519-25.005.001-34.523z" fill="#fa759e"/><circle cx="71.415" cy="66.847" fill="#d4fbff" r="18.724"/><g><path d="m58.175 56.607c7.312-7.312 19.167-7.312 26.479 0 3.274 3.274 5.07 7.46 5.413 11.74.422-5.279-1.375-10.702-5.413-14.74-7.312-7.312-19.167-7.312-26.479 0-4.038 4.038-5.834 9.461-5.412 14.74.342-4.281 2.138-8.466 5.412-11.74z" fill="#fff"/></g><path d="m119.058 106.51-18.594-18.594c-1.892-1.892-4.988-1.892-6.88 0l-1.099 1.099c-1.892 1.892-1.892 4.988 0 6.88l18.594 18.594c1.892 1.892 4.988 1.892 6.88 0l1.099-1.099c1.892-1.892 1.892-4.988 0-6.88z" fill="#6dc9f7"/></g><g fill="#3a2c60"><path d="m57.468 80.793c3.726 3.726 8.679 5.777 13.947 5.777s10.222-2.052 13.946-5.777c3.726-3.725 5.777-8.678 5.777-13.946s-2.051-10.222-5.777-13.947c-7.689-7.689-20.202-7.689-27.894 0-7.689 7.69-7.689 20.204.001 27.893zm13.947-31.662c4.538 0 9.077 1.729 12.532 5.183 3.348 3.348 5.191 7.799 5.191 12.533s-1.844 9.185-5.191 12.532-7.798 5.191-12.532 5.191-9.186-1.844-12.533-5.191c-6.91-6.91-6.91-18.154 0-25.065 3.456-3.455 7.994-5.183 12.533-5.183z"/><path d="m119.765 105.803-6.223-6.222c-.391-.391-1.023-.391-1.414 0s-.391 1.023 0 1.414l6.223 6.222c1.506 1.507 1.506 3.96 0 5.467l-1.099 1.099c-1.507 1.505-3.959 1.506-5.466 0l-18.594-18.594c-1.507-1.507-1.507-3.96 0-5.467l1.099-1.099c1.508-1.506 3.96-1.505 5.466 0l3.331 3.331c.391.391 1.023.391 1.414 0s.391-1.023 0-1.414l-3.331-3.331c-1.559-1.559-3.779-2.029-5.762-1.462l-3.663-3.663c7.465-9.947 6.681-24.164-2.363-33.206-4.17-4.17-9.442-6.578-14.887-7.238l-1.963-10.469c-2.615-13.954-14.818-24.082-29.015-24.082-14.196 0-26.399 10.128-29.016 24.082l-11.824 63.066c-.585 3.119.478 6.243 2.843 8.358 2.365 2.114 5.586 2.823 8.623 1.895 2.437-.747 5.086-.107 6.915 1.67l3.194 3.103c3.282 3.188 8.427 3.402 11.966.5l2.864-2.352c2.571-2.11 6.301-2.108 8.868 0l2.866 2.352c1.666 1.366 3.687 2.042 5.702 2.042 2.267 0 4.526-.854 6.264-2.542l3.194-3.103c1.83-1.777 4.481-2.417 6.915-1.67 3.036.927 6.258.219 8.623-1.895 2.365-2.115 3.428-5.239 2.843-8.358l-.937-4.997c1.116-.598 2.196-1.286 3.231-2.062l3.644 3.644c-.15.524-.231 1.071-.231 1.632 0 1.57.608 3.043 1.713 4.147l18.594 18.594c1.144 1.144 2.645 1.715 4.146 1.715s3.004-.572 4.147-1.715l1.099-1.099c2.287-2.285 2.287-6.006.001-8.293zm-31.796-22.401c-9.129 9.126-23.979 9.127-33.108 0-9.129-9.129-9.129-23.981-.001-33.109 4.564-4.564 10.56-6.847 16.555-6.847 5.996 0 11.991 2.282 16.556 6.847 9.127 9.127 9.127 23.98-.002 33.109zm-5.575 11.205c.454 2.425-.372 4.854-2.211 6.498s-4.346 2.196-6.704 1.474c-3.135-.958-6.542-.137-8.894 2.146l-3.194 3.103c-2.554 2.48-6.556 2.646-9.304.389l-2.866-2.352c-1.652-1.355-3.677-2.033-5.703-2.033-2.024 0-4.051.678-5.703 2.033l-2.864 2.352c-2.752 2.257-6.751 2.092-9.305-.389l-3.194-3.103c-2.351-2.284-5.76-3.106-8.894-2.146-2.36.722-4.866.17-6.704-1.474-1.839-1.645-2.665-4.073-2.211-6.498l11.824-63.067c2.439-13.009 13.815-22.451 27.051-22.451s24.612 9.442 27.051 22.451l1.862 9.931c-6.842-.272-13.774 2.195-18.986 7.407-9.908 9.907-9.907 26.029.001 35.938 4.954 4.954 11.461 7.431 17.968 7.431 3.459 0 6.916-.707 10.142-2.107zm5.817-8.698c.398-.352.791-.713 1.172-1.093.381-.381.742-.774 1.094-1.173l3.042 3.042c-.22.165-.442.325-.642.524l-1.099 1.099c-.198.198-.373.411-.539.63z"/><path d="m109.534 98.402c.195.195.451.293.707.293s.512-.098.707-.293c.391-.391.391-1.023 0-1.414l-3.625-3.625c-.391-.391-1.023-.391-1.414 0s-.391 1.023 0 1.414z"/><path d="m34.894 26.517c-2.371 0-5.402 2.509-5.402 5.603s1.922 6.697 4.294 6.697c2.371 0 4.294-3.602 4.294-6.697s-.815-5.603-3.186-5.603z"/><path d="m53.25 38.817c2.371 0 4.294-3.602 4.294-6.697s-3.03-5.603-5.402-5.603-3.186 2.509-3.186 5.603 1.923 6.697 4.294 6.697z"/><path d="m47.407 49.469c0-3.359-1.741-8.268-3.889-8.268s-3.889 4.91-3.889 8.268c0 3.359 1.741 4.989 3.889 4.989s3.889-1.63 3.889-4.989z"/></g></g></g></svg>